# xmcd
#
# Track frame offsets:
#	150
#	16265
#	38325
#
# Disc length: 705 seconds
#
# Revision: 0
# Processed by: cddbd v1.5.1PL0 Copyright (c) Steve Scherf et al.
# Submitted via: audiograbber 1.82.02
#
DISCID=1202bf03
DTITLE=Keith Urban - Only You (single)
DYEAR=1997
DGENRE=Country
TTITLE0=Only You
TTITLE1=The River
TTITLE2=The Arms Of Mary
EXTD=
EXTT0=
EXTT1=
EXTT2=
PLAYORDER=
